<?xml version="1.0" ?><!DOCTYPE svg  PUBLIC '-//W3C//DTD SVG 1.1//EN'  'http://www.w3.org/Graphics/SVG/1.1/DTD/svg11.dtd'><svg height="512px" style="enable-background:new 0 0 512 512;" version="1.1" viewBox="0 0 512 512" width="512px" xml:space="preserve" xmlns="http://www.w3.org/2000/svg" xmlns:xlink="http://www.w3.org/1999/xlink"><g id="_x33_30-suse"><g><g><path d="M366.087,144.483c0,0-0.22,13.324-0.22,14.781c-6.627-2.185-54.172-17.548-98.803-19.15     c-37.789-1.31-89.413-3.131-162.367,41.721c-14.126,9.028-53.808,33.565-72.521,79.873c-4.003,9.685-9.174,31.526-4.003,51.987     c2.257,8.956,6.407,17.911,12.013,25.993c12.67,18.204,33.93,30.289,56.865,32.328c32.328,2.839,56.865-11.649,65.53-38.808     c5.97-18.785,0-46.308-22.935-60.358c-18.64-11.433-38.809-8.812-50.386-1.167c-10.121,6.699-15.873,17.11-15.727,28.542     c0.217,20.242,17.692,31.018,30.216,31.018c3.64,0,7.354-0.582,11.504-1.966c4.732-1.311,9.683-4.732,9.683-10.85     c0-8.811-8.446-10.775-12.232-10.12c-2.111,0.365-3.277,1.457-8.591,1.746c-1.457-0.144-8.736-2.256-8.736-10.192v-0.074     c0.145-8.954,9.61-13.105,18.566-12.304c23.518,2.04,34.731,29.634,20.75,47.837c-13.324,17.257-55.772,16.892-72.592-14.853     c-18.93-35.824,9.247-80.966,63.344-71.647c24.174,4.151,60.87,25.85,74.559,75.943h33.42     c-4.149-12.817-6.48-49.731,31.089-49.731c41.283,0,46.525,29.052,58.104,49.731h35.387     c-9.321-13.324-15.802-28.178-13.761-40.63c4.076-24.609,28.905-13.397,59.995-12.669c48.419,0.291,74.339-19.659,75.067-20.387     c2.694-2.258,4.732-11.504,5.096-12.888c0.948-3.714-2.329-1.748-2.329-1.748c-6.336,3.786-22.208,11.068-37.061,11.359     c-18.421,0.364-55.481-18.494-59.413-20.533c-0.219-0.291,0.073,0.875-8.01-18.566c64.364,42.449,86.135,29.488,105.723,15.801     c0.58-0.438,3.129-2.112,2.62-4.151c-10.049-35.021-16.31-45.651-25.119-50.675c-26.94-15.728-91.014-25.266-94.073-25.703     C366.813,143.901,366.087,143.756,366.087,144.483L366.087,144.483z M410.064,197.489c0.435-14.707,12.741-26.94,28.322-26.43     c24.318,0.874,35.533,30.799,17.768,47.472C438.533,235.061,409.263,221.88,410.064,197.489L410.064,197.489z M438.168,179.067     c-10.776-0.363-19.439,8.155-19.731,18.422c-0.364,10.558,7.864,19.44,18.421,19.805c10.776,0.364,19.441-8.081,19.804-18.422     C457.026,188.315,448.727,179.505,438.168,179.067z M441.299,200.038c-11.212,0-11.212-11.358,0-11.358     C452.512,188.68,452.512,200.038,441.299,200.038z" style="fill:#79BF42;"/></g></g></g><g id="Layer_1"/></svg>